<?xml version="1.0" encoding="utf-8"?>
<!-- Generator: Adobe Illustrator 22.0.1, SVG Export Plug-In . SVG Version: 6.00 Build 0)  -->
<svg version="1.1" id="레이어_1" xmlns="http://www.w3.org/2000/svg" xmlns:xlink="http://www.w3.org/1999/xlink" x="0px"
	 y="0px" viewBox="0 0 44 44" style="enable-background:new 0 0 44 44;" xml:space="preserve">
<style type="text/css">
	.st0{fill:#EEEEEE;}
	.st1{fill:#FFDD63;}
</style>
<path class="st0" d="M22,1.2c-0.4,0-0.8,0.2-1,0.7l-4.6,14.3l-15.1,0c-1,0-1.4,1.2-0.6,1.8L13,26.9L8.3,41.2C8,42.1,9,42.9,9.8,42.3
	L22,33.4V1.2z"/>
<path class="st1" d="M22,1.2c-0.4,0-0.8,0.2-1,0.7l-4.6,14.3l-15.1,0c-1,0-1.4,1.2-0.6,1.8L13,26.9L8.3,41.2C8,42.1,9,42.9,9.8,42.3
	L22,33.4V1.2z"/>
<path class="st0" d="M22,1.2c0.4,0,0.8,0.2,1,0.7l4.6,14.3l15.1,0c1,0,1.4,1.2,0.6,1.8L31,26.9l4.7,14.3c0.3,0.9-0.8,1.7-1.5,1.1
	L22,33.4V1.2z"/>
</svg>
