<svg id="레이어_1" data-name="레이어 1" xmlns="http://www.w3.org/2000/svg" viewBox="0 0 43.29 41.27"><defs><style>.cls-1{fill:#eee;}.cls-2{fill:#ffdd63;}</style></defs><title>TheHalfStar</title><path class="cls-1" d="M22,1.25a1,1,0,0,0-.95.69L16.42,16.28l-15.06,0a1,1,0,0,0-.59,1.81L13,26.89,8.29,41.21a1,1,0,0,0,1.54,1.12L22,33.44Z" transform="translate(-0.35 -1.25)"/><path class="cls-2" d="M22,1.25a1,1,0,0,0-.95.69L16.42,16.28l-15.06,0a1,1,0,0,0-.59,1.81L13,26.89,8.29,41.21a1,1,0,0,0,1.54,1.12L22,33.44Z" transform="translate(-0.35 -1.25)"/><path class="cls-1" d="M22,1.25a1,1,0,0,1,.95.69l4.63,14.34,15.06,0a1,1,0,0,1,.59,1.81L31,26.89l4.69,14.32a1,1,0,0,1-1.54,1.12L22,33.44Z" transform="translate(-0.35 -1.25)"/></svg>